<svg width="32" height="33" viewBox="0 0 32 33" fill="none" xmlns="http://www.w3.org/2000/svg">
<path d="M16 19.1667C18.9413 19.1667 21.3333 16.7747 21.3333 13.8334C21.3333 10.8921 18.9413 8.50008 16 8.50008C13.0587 8.50008 10.6667 10.8921 10.6667 13.8334C10.6667 16.7747 13.0587 19.1667 16 19.1667ZM16 11.1667C17.4707 11.1667 18.6667 12.3627 18.6667 13.8334C18.6667 15.3041 17.4707 16.5001 16 16.5001C14.5293 16.5001 13.3333 15.3041 13.3333 13.8334C13.3333 12.3627 14.5293 11.1667 16 11.1667ZM15.2267 29.5854C15.4524 29.7466 15.7227 29.8332 16 29.8332C16.2773 29.8332 16.5477 29.7466 16.7734 29.5854C17.1787 29.2987 26.7054 22.4201 26.6667 13.8334C26.6667 7.95208 21.8814 3.16675 16 3.16675C10.1187 3.16675 5.33337 7.95208 5.33337 13.8267C5.2947 22.4201 14.8214 29.2987 15.2267 29.5854ZM16 5.83341C20.412 5.83341 24 9.42142 24 13.8401C24.028 19.7574 18.1494 25.0707 16 26.8134C13.852 25.0694 7.97204 19.7547 8.00004 13.8334C8.00004 9.42141 11.588 5.83341 16 5.83341Z" fill="white"/>
<path d="M16 19.1667C18.9413 19.1667 21.3333 16.7747 21.3333 13.8334C21.3333 10.8921 18.9413 8.50008 16 8.50008C13.0587 8.50008 10.6667 10.8921 10.6667 13.8334C10.6667 16.7747 13.0587 19.1667 16 19.1667ZM16 11.1667C17.4707 11.1667 18.6667 12.3627 18.6667 13.8334C18.6667 15.3041 17.4707 16.5001 16 16.5001C14.5293 16.5001 13.3333 15.3041 13.3333 13.8334C13.3333 12.3627 14.5293 11.1667 16 11.1667ZM15.2267 29.5854C15.4524 29.7466 15.7227 29.8332 16 29.8332C16.2773 29.8332 16.5477 29.7466 16.7734 29.5854C17.1787 29.2987 26.7054 22.4201 26.6667 13.8334C26.6667 7.95208 21.8814 3.16675 16 3.16675C10.1187 3.16675 5.33337 7.95208 5.33337 13.8267C5.2947 22.4201 14.8214 29.2987 15.2267 29.5854ZM16 5.83341C20.412 5.83341 24 9.42142 24 13.8401C24.028 19.7574 18.1494 25.0707 16 26.8134C13.852 25.0694 7.97204 19.7547 8.00004 13.8334C8.00004 9.42141 11.588 5.83341 16 5.83341Z" fill="white"/>
</svg>
