<svg width="32" height="33" viewBox="0 0 32 33" fill="none" xmlns="http://www.w3.org/2000/svg">
<path d="M23.6095 16.8906C23.4857 16.7667 23.3388 16.6684 23.177 16.6013C23.0153 16.5342 22.8419 16.4997 22.6668 16.4997C22.4917 16.4997 22.3183 16.5342 22.1565 16.6013C21.9948 16.6684 21.8478 16.7667 21.7241 16.8906L19.5988 19.016C18.6135 18.7226 16.7748 18.056 15.6095 16.8906C14.4441 15.7253 13.7775 13.8866 13.4841 12.9013L15.6095 10.776C15.7334 10.6523 15.8317 10.5053 15.8988 10.3436C15.9659 10.1818 16.0004 10.0084 16.0004 9.83332C16.0004 9.65821 15.9659 9.48481 15.8988 9.32306C15.8317 9.16131 15.7334 9.01437 15.6095 8.89065L10.2761 3.55732C10.1524 3.43339 10.0055 3.33507 9.84371 3.26799C9.68196 3.20091 9.50856 3.16638 9.33345 3.16638C9.15834 3.16638 8.98495 3.20091 8.82319 3.26799C8.66144 3.33507 8.5145 3.43339 8.39079 3.55732L4.77479 7.17332C4.26812 7.67998 3.98279 8.37598 3.99345 9.08665C4.02412 10.9853 4.52679 17.58 9.72412 22.7773C14.9215 27.9746 21.5161 28.476 23.4161 28.508H23.4535C24.1575 28.508 24.8228 28.2306 25.3268 27.7266L28.9428 24.1106C29.0667 23.9869 29.165 23.84 29.2321 23.6782C29.2992 23.5165 29.3337 23.3431 29.3337 23.168C29.3337 22.9929 29.2992 22.8195 29.2321 22.6577C29.165 22.496 29.0667 22.349 28.9428 22.2253L23.6095 16.8906ZM23.4401 25.84C21.7761 25.812 16.0828 25.3653 11.6095 20.8906C7.12145 16.4026 6.68679 10.6893 6.66012 9.05865L9.33345 6.38532L12.7815 9.83332L11.0575 11.5573C10.9007 11.7139 10.7855 11.9071 10.7222 12.1194C10.6589 12.3317 10.6495 12.5565 10.6948 12.7733C10.7268 12.9266 11.5095 16.5626 13.7228 18.776C15.9361 20.9893 19.5721 21.772 19.7255 21.804C19.9422 21.8506 20.1672 21.8419 20.3796 21.7788C20.5921 21.7156 20.7853 21.6 20.9415 21.4426L22.6668 19.7186L26.1148 23.1666L23.4401 25.84Z" fill="white"/>
</svg>
