<svg width="32" height="33" viewBox="0 0 32 33" fill="none" xmlns="http://www.w3.org/2000/svg">
<path d="M26.6667 5.83337H5.33341C3.86275 5.83337 2.66675 7.02937 2.66675 8.50004V24.5C2.66675 25.9707 3.86275 27.1667 5.33341 27.1667H26.6667C28.1374 27.1667 29.3334 25.9707 29.3334 24.5V8.50004C29.3334 7.02937 28.1374 5.83337 26.6667 5.83337ZM26.6667 8.50004V9.18137L16.0001 17.4787L5.33341 9.18271V8.50004H26.6667ZM5.33341 24.5V12.5587L15.1814 20.2187C15.4149 20.4021 15.7032 20.5018 16.0001 20.5018C16.297 20.5018 16.5853 20.4021 16.8187 20.2187L26.6667 12.5587L26.6694 24.5H5.33341Z" fill="white"/>
</svg>
