<svg width="32" height="33" viewBox="0 0 32 33" fill="none" xmlns="http://www.w3.org/2000/svg">
<path d="M26.6667 3.16663H5.33341C3.86275 3.16663 2.66675 4.36263 2.66675 5.83329V21.8333C2.66675 23.304 3.86275 24.5 5.33341 24.5H9.33342V29.5226L17.7027 24.5H26.6667C28.1374 24.5 29.3334 23.304 29.3334 21.8333V5.83329C29.3334 4.36263 28.1374 3.16663 26.6667 3.16663ZM26.6667 21.8333H16.9641L12.0001 24.8106V21.8333H5.33341V5.83329H26.6667V21.8333ZM9.33342 9.83329H22.6667V12.5H9.33342V9.83329ZM9.33342 15.1666H18.6667V17.8333H9.33342V15.1666Z" fill="white"/>
<path d="M26.6667 3.16663H5.33341C3.86275 3.16663 2.66675 4.36263 2.66675 5.83329V21.8333C2.66675 23.304 3.86275 24.5 5.33341 24.5H9.33342V29.5226L17.7027 24.5H26.6667C28.1374 24.5 29.3334 23.304 29.3334 21.8333V5.83329C29.3334 4.36263 28.1374 3.16663 26.6667 3.16663ZM26.6667 21.8333H16.9641L12.0001 24.8106V21.8333H5.33341V5.83329H26.6667V21.8333ZM9.33342 9.83329H22.6667V12.5H9.33342V9.83329ZM9.33342 15.1666H18.6667V17.8333H9.33342V15.1666Z" fill="white"/>
</svg>
