<svg width="14" height="15" viewBox="0 0 14 15" fill="none" xmlns="http://www.w3.org/2000/svg">
<g clip-path="url(#clip0_1_1336)">
<path d="M6.73994 4.26195C4.87621 4.26195 3.37291 5.74176 3.37291 7.57637C3.37291 9.41098 4.87621 10.8908 6.73994 10.8908C8.60368 10.8908 10.107 9.41098 10.107 7.57637C10.107 5.74176 8.60368 4.26195 6.73994 4.26195ZM6.73994 9.73118C5.53555 9.73118 4.55093 8.76483 4.55093 7.57637C4.55093 6.38791 5.53262 5.42156 6.73994 5.42156C7.94727 5.42156 8.92895 6.38791 8.92895 7.57637C8.92895 8.76483 7.94434 9.73118 6.73994 9.73118ZM11.03 4.12637C11.03 4.55618 10.6784 4.89945 10.2447 4.89945C9.80807 4.89945 9.45935 4.55329 9.45935 4.12637C9.45935 3.69945 9.811 3.35329 10.2447 3.35329C10.6784 3.35329 11.03 3.69945 11.03 4.12637ZM13.2601 4.91099C13.2103 3.87541 12.97 2.9581 12.1993 2.20233C11.4315 1.44656 10.4996 1.21003 9.44763 1.1581C8.36338 1.09753 5.11357 1.09753 4.02932 1.1581C2.98024 1.20714 2.04837 1.44368 1.27767 2.19945C0.506979 2.95522 0.269616 3.87253 0.216869 4.9081C0.155331 5.97541 0.155331 9.17445 0.216869 10.2418C0.266686 11.2773 0.506979 12.1946 1.27767 12.9504C2.04837 13.7062 2.97731 13.9427 4.02932 13.9946C5.11357 14.0552 8.36338 14.0552 9.44763 13.9946C10.4996 13.9456 11.4315 13.7091 12.1993 12.9504C12.967 12.1946 13.2073 11.2773 13.2601 10.2418C13.3216 9.17445 13.3216 5.97829 13.2601 4.91099ZM11.8594 11.3869C11.6308 11.9523 11.1883 12.3879 10.611 12.6158C9.74653 12.9533 7.69525 12.8754 6.73994 12.8754C5.78463 12.8754 3.73042 12.9504 2.86888 12.6158C2.29452 12.3908 1.85203 11.9552 1.62053 11.3869C1.27767 10.536 1.3568 8.51675 1.3568 7.57637C1.3568 6.63599 1.2806 4.61387 1.62053 3.76579C1.8491 3.20041 2.29159 2.76483 2.86888 2.53695C3.73335 2.19945 5.78463 2.27733 6.73994 2.27733C7.69525 2.27733 9.74946 2.20233 10.611 2.53695C11.1854 2.76195 11.6278 3.19753 11.8594 3.76579C12.2022 4.61676 12.1231 6.63599 12.1231 7.57637C12.1231 8.51675 12.2022 10.5389 11.8594 11.3869Z" fill="white"/>
</g>
<defs>
<clipPath id="clip0_1_1336">
<rect width="13.1282" height="14.7692" fill="white" transform="translate(0.172897 0.194946)"/>
</clipPath>
</defs>
</svg>
