<svg width="33" height="33" viewBox="0 0 33 33" fill="none" xmlns="http://www.w3.org/2000/svg">
<rect opacity="0.1" x="1.21314" y="0.729088" width="30.8805" height="30.8805" rx="15.4402" fill="white" stroke="white" stroke-width="1.11952"/>
<path fill-rule="evenodd" clip-rule="evenodd" d="M13.7816 21.5026H11.32V14.118H13.7816V21.5026Z" fill="white"/>
<path fill-rule="evenodd" clip-rule="evenodd" d="M12.5435 12.4771H12.5296C11.795 12.4771 11.3201 11.9298 11.3201 11.2459C11.3201 10.5475 11.8094 10.0155 12.558 10.0155C13.3065 10.0155 13.7674 10.5475 13.7816 11.2459C13.7816 11.9298 13.3065 12.4771 12.5435 12.4771Z" fill="white"/>
<path fill-rule="evenodd" clip-rule="evenodd" d="M22.8072 21.5024H20.3883V17.6423C20.3883 16.6728 20.0383 16.0112 19.1626 16.0112C18.4944 16.0112 18.0963 16.4572 17.9215 16.888C17.8575 17.0424 17.8418 17.2575 17.8418 17.4731V21.5026H15.4226C15.4226 21.5026 15.4545 14.9646 15.4226 14.2876H17.8418V15.3095C18.1629 14.8182 18.7379 14.118 20.0222 14.118C21.6139 14.118 22.8073 15.1494 22.8073 17.3655L22.8072 21.5024Z" fill="white"/>
</svg>
