<svg width="12" height="10" viewBox="0 0 12 10" fill="none" xmlns="http://www.w3.org/2000/svg">
<path fill-rule="evenodd" clip-rule="evenodd" d="M5.84596 3.05745L5.86908 3.44783L5.48372 3.40003C4.081 3.21679 2.85555 2.59536 1.81507 1.55168L1.30639 1.03382L1.17537 1.41624C0.897905 2.26871 1.07517 3.16899 1.65322 3.77448C1.96151 4.1091 1.89214 4.1569 1.36034 3.95772C1.17537 3.89399 1.01351 3.84619 0.998099 3.87009C0.944148 3.92586 1.12912 4.65086 1.27556 4.93767C1.47595 5.33602 1.88443 5.7264 2.33145 5.95745L2.70911 6.14069L2.26209 6.14866C1.83048 6.14866 1.81507 6.15662 1.86131 6.32393C2.01546 6.84179 2.62433 7.39151 3.30257 7.63052L3.78042 7.79783L3.36423 8.05278C2.74765 8.41926 2.02316 8.6264 1.29868 8.64234C0.951855 8.6503 0.666687 8.68217 0.666687 8.70607C0.666687 8.78574 1.60697 9.2319 2.15419 9.40717C3.79583 9.92503 5.74577 9.70195 7.21015 8.81761C8.25063 8.18822 9.2911 6.93739 9.77666 5.7264C10.0387 5.08108 10.3008 3.90196 10.3008 3.3363C10.3008 2.96981 10.3239 2.92201 10.7555 2.48382C11.0098 2.22888 11.2487 1.95003 11.295 1.87036C11.3721 1.71899 11.3644 1.71899 10.9713 1.85443C10.3162 2.09344 10.2237 2.06157 10.5474 1.70305C10.7863 1.44811 11.0715 0.986023 11.0715 0.850583C11.0715 0.826682 10.9559 0.866517 10.8248 0.93822C10.6861 1.01789 10.3778 1.1374 10.1466 1.2091L9.73042 1.34454L9.35276 1.08163C9.14467 0.938221 8.85179 0.77888 8.69765 0.731078C8.30458 0.619539 7.70341 0.635474 7.34888 0.762946C6.38547 1.12146 5.7766 2.04564 5.84596 3.05745Z" fill="white"/>
</svg>
